# xmcd
#
# Track frame offsets:
#	150
#	20855
#	34940
#	46415
#	60107
#	75825
#	90687
#	104557
#	120107
#	133682
#	153195
#	166582
#	180682
#
# Disc length: 2590 seconds
#
# Revision: 0
# Processed by: cddbd v1.4PL0 Copyright (c) Steve Scherf et al.
# Submitted via: dBpowerAMP V4.0
#
DISCID=920a1c0d
DTITLE=Bukka White - Big Daddy
DYEAR=1973
DGENRE=Blues
TTITLE0=Gibson Hill
TTITLE1=Black Cat Bone Blues
TTITLE2=1936 Trigger Toe
TTITLE3=Cryin' Holy Unto The Lord
TTITLE4=Shake My Hand Blues
TTITLE5=Sic Em Dogs
TTITLE6=Aberdeen Mississippi
TTITLE7=Mama Don' Low
TTITLE8=Hot Springs Arkansas
TTITLE9=Jelly Roll Morton Man
TTITLE10=Black Crepe Blues
TTITLE11=Glory Bound Train
TTITLE12=Hobo Blues
EXTD=
EXTT0=
EXTT1=
EXTT2=
EXTT3=
EXTT4=
EXTT5=
EXTT6=
EXTT7=
EXTT8=
EXTT9=
EXTT10=
EXTT11=
EXTT12=
PLAYORDER=
